PathFileType	4	(X/Y/Z)	C:/Users/beibeiliu/ov580/test_trc/User3\sequence.6_training_dense_left.trc
DataRate	CameraRate	NumFrames	NumMarkers	Units	OrigDataRate	OrigDataStartFrame	OrigNumFrames
120	120	15	19	mm	120	25	195
Frame#	Time	ThumbCMC			ThumbMCP			ThumbIP			ThumbTip			IndexMCP			IndexPIP			IndexTip			MiddleMCP			MiddlePIP			MiddleTip			RingMCP			RingPIP			RingTip			PinkyMCP			PinkyPIP			PinkyTip			BackHand1			BackHand2			BackHand3	
		X0	Y0	Z0	X1	Y1	Z1	X2	Y2	Z2	X3	Y3	Z3	X4	Y4	Z4	X5	Y5	Z5	X6	Y6	Z6	X7	Y7	Z7	X8	Y8	Z8	X9	Y9	Z9	X10	Y10	Z10	X11	Y11	Z11	X12	Y12	Z12	X13	Y13	Z13	X14	Y14	Z14	X15	Y15	Z15	X16	Y16	Z16	X17	Y17	Z17	X18	Y18	Z18	
24	0.2	-173.09	-2.46225	15.0411	-145.821	-6.19046	-0.146876	-135.631	-35.1629	-20.0922	-144.009	-61.107	-21.9782	-151.001	-41.1565	-45.706	-130.128	-59.5114	-26.4613	-146.775	-49.9268	-0.667011	-161.299	-59.2382	-37.5854	-147.084	-71.447	-6.6127	-174.112	-51.3434	10.3236	-170.728	-77.5441	-26.0817	-157.761	-78.9203	2.57891	-171.301	-58.014	21.9034	-182.779	-84.2277	-18.381	-172.873	-80.4391	5.13046	-196.401	-55.7757	11.619	-218.368	-40.3471	-17.1406	-230.026	-32.5695	11.2227	-204.693	-12.617	-4.45391	
25	0.208333	-182.164	4.62661	15.4224	-152.536	0.204387	2.17093	-132.672	-23.1617	-14.6084	-130.27	-50.4376	-15.474	-144.139	-28.3825	-40.8602	-120.394	-31.5005	-21.0155	-139.638	-20.5676	5.75034	-151.73	-51.3386	-40.7992	-125.858	-53.9524	-19.7862	-150.299	-43.9572	8.94351	-156.143	-64.7916	-18.2314	-141.221	-55.2548	8.19208	-167.47	-39.8859	18.6294	-160.552	-72.8803	-7.94336	-151.622	-62.8465	15.3433	-168.947	-45.4483	28.2917	-211.584	-47.894	-12.1105	-229.5	-42.5886	14.5264	-208.977	-16.7833	-7.78488	
26	0.216667	-187.424	11.262	21.5179	-160.141	19.0516	1.15586	-134.811	-1.04724	-13.3533	-123.768	-11.438	-16.0773	-146.549	-23.1778	-42.2122	-115.817	-25.2851	-30.6645	-130.043	-17.9729	-0.830861	-140.868	-40.6663	-28.2509	-126.961	-41.0687	3.11598	-156.831	-25.345	18.4465	-151.939	-55.503	-15.2834	-137.811	-52.2645	12.1282	-161.974	-37.3183	35.9268	-159.076	-70.5852	-3.76934	-155.27	-51.922	18.3378	-182.956	-39.7793	17.3607	-206.773	-46.3078	-16.2788	-227.333	-39.0448	10.4109	-206.381	-5.47041	-0.115666	
27	0.225	-187.594	18.3236	10.7685	-153.372	22.9843	3.02647	-121.203	6.09629	-4.68223	-119.332	-21.8647	2.89187	-144.012	-17.502	-38.0437	-115.992	-6.13411	-16.82	-136.68	-0.0791208	4.68255	-137.595	-34.491	-25.2034	-117.374	-20.6635	-2.6819	-139.864	-8.36679	28.5391	-141.828	-48.2805	-6.37048	-131.483	-29.8215	20.3078	-157.682	-17.3759	37.0185	-147.284	-64.9837	3.35144	-133.985	-43.4594	16.2471	-159.96	-27.7883	21.0142	-197.821	-47.1189	-9.39896	-218.033	-40.8905	17.3645	-206.962	-15.1314	-7.15295	
28	0.233333	-198.404	19.173	8.81444	-165.561	30.2908	-2.0172	-134.56	23.2175	-5.14117	-114.644	17.1776	-4.83343	-145.949	-4.85339	-40.1454	-120.899	12.0241	-24.244	-142.507	17.4304	2.18939	-130.258	-21.9318	-27.3647	-116.711	-3.35737	-6.71085	-147.49	2.53398	12.8082	-131.647	-26.7643	-1.66613	-134.685	-6.0345	20.5765	-169.575	-9.49818	23.9362	-137.803	-40.5477	8.03629	-130.8	-15.7513	24.1764	-140.66	4.69849	31.2053	-190.653	-46.6496	-2.08867	-208.958	-42.4227	18.4339	-208.083	-16.7988	-3.49869	
29	0.241667	-202.742	23.4245	1.12935	-174.538	41.0554	-7.71567	-143.42	33.134	-8.71996	-126.238	12.0941	2.93008	-142.572	4.54148	-41.1952	-128.4	28.8891	-25.8148	-154.482	25.4388	-0.54602	-133.212	-1.27687	-24.2703	-131.182	17.8108	0.607312	-169.471	9.29737	11.5192	-132.358	-14.0598	-5.63974	-128.167	5.25938	16.8372	-154.353	14.5114	31.9943	-132.921	-26.273	7.65235	-143.263	-0.587514	20.1435	-169.713	-13.0199	22.4336	-182.361	-43.1362	-0.60172	-203.956	-42.8118	18.5641	-205.05	-17.077	-9.38369	
30	0.25	-221.87	15.5666	12.2382	-201.328	34.196	-7.3026	-167.668	37.6343	-21.5522	-143.801	27.3513	-12.3993	-165.62	6.69863	-43.1129	-140.267	29.1412	-44.9833	-151.248	42.2689	-16.394	-142.285	7.42744	-27.3891	-135.644	31.867	-9.80792	-163.867	24.3882	14.7538	-141.553	-8.55846	-17.8012	-125.222	14.9795	-2.23624	-153.016	17.5504	19.225	-137.222	-18.0465	-2.25424	-124.6	3.23617	6.66099	-148.897	5.30927	30.867	-187.845	-38.439	3.07217	-204.253	-43.264	22.7714	-214.447	-15.6747	-3.20172	
31	0.258333	-225.766	20.8392	-1.43318	-206.087	45.027	-20.2273	-173.01	45.6295	-24.0984	-155.202	37.2476	-12.0471	-161.302	17.0723	-49.5783	-149.904	42.1701	-34.4309	-172.153	36.5923	-11.0794	-148.377	10.1482	-29.5718	-149.737	35.0702	-4.06734	-179.612	19.0947	8.68054	-142.156	3.34391	-11.6123	-147.258	24.1868	9.02135	-181.817	9.96853	13.9826	-136.877	-5.48629	2.97276	-152.295	16.7394	16.9797	-177.569	1.39854	21.678	-179.554	-37.3719	-4.79973	-203.23	-40.5853	20.318	-212.391	-18.7044	-9.82055	
32	0.266667	-230.409	14.7635	-3.13406	-213.914	37.7412	-24.8169	-179.703	42.8703	-31.191	-159.353	33.7073	-16.8471	-174.961	16.9101	-56.6274	-165.81	44.1864	-41.5509	-188.755	38.308	-20.4151	-159.102	15.9657	-39.2972	-158.694	40.228	-19.4134	-186.279	27.7707	8.42244	-152.114	4.78758	-22.7891	-154.644	33.2404	-8.47174	-183.639	22.7313	10.3975	-140.045	-7.98682	-9.94216	-138.575	19.5054	-8.26663	-162.699	19.6485	11.4451	-186.322	-33.5537	-1.9311	-202.838	-37.8547	24.5644	-217.548	-23.7211	-10.7007	
33	0.275	-240.166	16.9717	-8.57797	-223.313	38.0163	-30.9176	-195.239	45.6709	-40.0952	-168.932	31.6539	-27.8539	-186.492	8.69617	-59.7324	-176.207	40.0051	-51.2801	-197.104	38.4958	-27.0133	-171.149	8.81565	-46.5868	-165.1	35.5636	-27.6933	-191.893	27.447	-2.04349	-160.743	6.17198	-26.705	-168.746	29.5769	-11.2338	-194.765	13.4862	6.20181	-149.654	-13.5068	-16.6409	-145.084	16.8684	-11.9039	-167.779	24.2245	-0.986652	-198.193	-36.1447	-3.2548	-215.926	-37.5365	18.6848	-231.094	-21.6423	-7.24824	
34	0.283333	-249.452	16.0073	-1.1688	-236.355	33.758	-28.2217	-208.912	34.9116	-46.8672	-181.326	26.5852	-44.1819	-209.68	-5.00036	-64.9987	-188.702	22.5967	-74.327	-199.017	35.6856	-49.1019	-186.396	-1.49344	-54.393	-177.503	30.6026	-44.9143	-200.92	26.5297	-14.7913	-176.751	-14.8161	-43.907	-160.633	13.1105	-42.8526	-180.528	21.9638	-15.0911	-167.956	-14.8074	-24.5815	-159.36	11.7739	-20.7507	-179.045	13.1916	6.54047	-212.44	-37.4752	-5.4292	-223.856	-38.3897	21.5446	-245.461	-20.6555	-4.13983	
35	0.291667	-253.42	15.3999	-8.859	-243.384	32.5173	-37.7265	-218.257	34.7767	-59.5278	-194.33	23.7435	-55.5983	-220.942	-12.7461	-67.962	-202.383	16.9792	-73.6909	-214.633	23.2521	-43.1044	-200.251	-15.2165	-60.068	-188.312	15.5759	-53.9467	-211.123	19.8504	-23.3923	-186.581	-14.8845	-45.8114	-180.512	11.1374	-35.2844	-204.157	10.3206	-10.3974	-177.793	-19.7366	-31.4965	-176.825	5.68033	-21.8858	-202.168	-1.89638	0.444701	-221.467	-42.3132	-5.79092	-229.184	-37.6943	22.8243	-252.615	-20.8241	-7.69083	
36	0.3	-264.256	13.8114	-2.86159	-257.091	25.4041	-35.0598	-238.318	23.9226	-61.7354	-215.036	13.5523	-64.825	-243.092	-23.0233	-69.9994	-219.622	-5.01429	-83.4968	-222.033	16.2973	-55.5733	-220.182	-26.9658	-64.724	-201.331	-1.142	-68.2331	-211.344	7.9869	-30.5543	-203.175	-28.0316	-48.3264	-191.72	0.631332	-44.7592	-206.091	3.09808	-14.1177	-195.521	-37.4734	-35.7397	-183.698	-15.3365	-42.4103	-197.322	0.331546	-16.397	-233.623	-46.8321	-3.1203	-240.079	-37.6786	27.6759	-263.853	-25.0046	-1.73507	
37	0.308333	-274.932	4.87003	-8.53201	-267.865	21.1163	-41.5903	-241.723	12.6649	-62.536	-216.74	2.56505	-64.9632	-257.389	-25.8808	-74.7658	-242.266	0.877734	-79.7635	-241.371	5.45415	-45.5676	-236.444	-35.711	-68.8898	-222.145	-4.28332	-73.1093	-233.736	6.68047	-38.1213	-220.72	-39.7793	-57.8161	-208.79	-12.0477	-63.9483	-226.435	1.12314	-36.7205	-205.713	-38.7308	-46.1213	-203.052	-12.7821	-49.8262	-216.047	-4.54749	-25.0568	-241.902	-51.2313	-6.32798	-246.093	-43.0664	22.3273	-269.29	-34.8174	-1.10831	
38	0.316667	-287.188	6.39006	-11.3233	-280.436	19.0425	-43.4613	-257.888	7.53086	-66.9945	-234.23	-9.17375	-61.0996	-271.594	-36.3877	-73.0825	-256.181	-13.1177	-85.0861	-258.256	2.12008	-51.9018	-252.869	-44.0824	-69.5136	-237.522	-17.5282	-75.8172	-243.693	-5.608	-37.4122	-237.847	-50.6561	-56.8393	-223.09	-24.7114	-63.4323	-232.937	-10.3943	-34.6323	-225.189	-52.0579	-44.57	-213.386	-26.0564	-46.471	-225.036	-16.7535	-24.9464	-260.056	-58.1271	-2.89623	-257.909	-44.2654	26.7838	-284.423	-31.7665	3.90687	
